<svg width="186" height="31" viewBox="0 0 186 31" fill="none" xmlns="http://www.w3.org/2000/svg">
<path fill-rule="evenodd" clip-rule="evenodd" d="M100.575 7.8752C99.6863 7.3184 98.6232 7.04 97.3861 7.04C96.0523 7.04 94.8587 7.3712 93.8052 8.0336C92.7518 8.696 91.9206 9.64639 91.3117 10.8848C90.7028 12.1232 90.3984 13.5872 90.3984 15.2768C90.3984 16.9472 90.7028 18.4064 91.3117 19.6544C91.9206 20.9024 92.7518 21.8576 93.8052 22.52C94.8587 23.1824 96.0523 23.5136 97.3861 23.5136C98.6232 23.5136 99.6863 23.2352 100.575 22.6784C101.465 22.1216 102.112 21.3632 102.518 20.4032V23.312H107.476V2H102.518V10.1504C102.112 9.1904 101.465 8.432 100.575 7.8752ZM47.1094 23.312V16.1696H50.1829C51.7872 16.1696 53.15 15.8864 54.2711 15.32C55.3922 14.7536 56.2379 13.976 56.8081 12.9872C57.3784 11.9984 57.6635 10.8704 57.6635 9.6032C57.6635 7.56799 57.0256 5.95041 55.7498 4.7504C54.4741 3.55039 52.6184 2.9504 50.1829 2.9504H42.1514V23.312H47.1094ZM52.6184 9.6032C52.6184 11.3504 51.6229 12.224 49.632 12.224H47.1094V6.9248H49.632C51.6229 6.9248 52.6184 7.81759 52.6184 9.6032ZM65.0571 10.2656C65.6757 9.2864 66.473 8.5088 67.4492 7.9328C68.4253 7.3568 69.4836 7.0688 70.6241 7.0688V12.3392H69.2033C67.8889 12.3392 66.8693 12.6176 66.1444 13.1744C65.4195 13.7312 65.0571 14.672 65.0571 15.9968V23.312H60.099V7.2416H65.0571V10.2656ZM84.585 8.0336C83.3189 7.3712 81.8836 7.04 80.2793 7.04C78.6749 7.04 77.2348 7.3712 75.9591 8.0336C74.6833 8.696 73.683 9.65119 72.9581 10.8992C72.2333 12.1472 71.8708 13.6064 71.8708 15.2768C71.8708 16.9472 72.2333 18.4064 72.9581 19.6544C73.683 20.9024 74.6833 21.8576 75.9591 22.52C77.2348 23.1824 78.6749 23.5136 80.2793 23.5136C81.8836 23.5136 83.3189 23.1824 84.585 22.52C85.8511 21.8576 86.8465 20.9024 87.5714 19.6544C88.2963 18.4064 88.6587 16.9472 88.6587 15.2768C88.6587 13.6064 88.2963 12.1472 87.5714 10.8992C86.8465 9.65119 85.8511 8.696 84.585 8.0336ZM80.2793 11.3024C79.3321 11.3024 78.5348 11.6432 77.8872 12.3248C77.2397 13.0064 76.9159 13.9904 76.9159 15.2768C76.9159 16.5632 77.2397 17.5424 77.8872 18.2144C78.5348 18.8864 79.3321 19.2224 80.2793 19.2224C81.2264 19.2224 82.0189 18.8864 82.6568 18.2144C83.2947 17.5424 83.6136 16.5632 83.6136 15.2768C83.6136 13.9904 83.2947 13.0064 82.6568 12.3248C82.0189 11.6432 81.2264 11.3024 80.2793 11.3024ZM98.9808 11.36C97.9176 11.36 97.0623 11.7056 96.4147 12.3968C95.7672 13.088 95.4434 14.048 95.4434 15.2768C95.4434 16.5056 95.7672 17.4656 96.4147 18.1568C97.0623 18.848 97.9176 19.1936 98.9808 19.1936C100.025 19.1936 100.88 18.8384 101.547 18.128C102.214 17.4176 102.547 16.4672 102.547 15.2768C102.547 14.0672 102.214 13.112 101.547 12.4112C100.88 11.7104 100.025 11.36 98.9808 11.36ZM122.002 23.312H126.99V7.2416H122.002V15.7664C122.002 16.9376 121.713 17.84 121.133 18.4736C120.553 19.1072 119.76 19.424 118.755 19.424C117.789 19.424 117.02 19.1216 116.45 18.5168C115.88 17.912 115.595 17.0624 115.595 15.968V7.2416H110.666V16.5728C110.666 18.7232 111.212 20.4128 112.304 21.6416C113.396 22.8704 114.87 23.4848 116.725 23.4848C117.943 23.4848 119.011 23.2064 119.929 22.6496C120.848 22.0928 121.539 21.344 122.002 20.4032V23.312ZM137.718 7.04C139.805 7.04 141.554 7.61119 142.966 8.7536C144.377 9.89601 145.266 11.4656 145.633 13.4624H140.385C140.23 12.7712 139.911 12.2336 139.428 11.8496C138.945 11.4656 138.336 11.2736 137.602 11.2736C136.732 11.2736 136.017 11.6144 135.456 12.296C134.895 12.9776 134.615 13.9712 134.615 15.2768C134.615 16.5824 134.895 17.576 135.456 18.2576C136.017 18.9392 136.732 19.28 137.602 19.28C138.336 19.28 138.945 19.088 139.428 18.704C139.911 18.32 140.23 17.7824 140.385 17.0912H145.633C145.266 19.088 144.377 20.6576 142.966 21.8C141.554 22.9424 139.805 23.5136 137.718 23.5136C136.133 23.5136 134.726 23.1824 133.499 22.52C132.271 21.8576 131.31 20.9024 130.614 19.6544C129.918 18.4064 129.57 16.9472 129.57 15.2768C129.57 13.5872 129.913 12.1232 130.599 10.8848C131.286 9.64639 132.247 8.696 133.484 8.0336C134.721 7.3712 136.133 7.04 137.718 7.04ZM157.376 23.312V19.0784H155.81C155.192 19.0784 154.752 18.9536 154.491 18.704C154.23 18.4544 154.099 18.0128 154.099 17.3792V11.3888H157.347V7.2416H154.099V3.296H149.141V7.2416H146.967V11.3888H149.141V17.2928C149.141 19.4432 149.668 20.984 150.722 21.9152C151.775 22.8464 153.249 23.312 155.143 23.312H157.376ZM165.117 2V23.312H160.159V2H165.117ZM176.164 17.0912L172.279 7.2416H166.741L173.526 22.7072L169.728 30.9728H175.179L185.269 7.2416H179.789L176.164 17.0912Z" fill="#173A56"/>
<path d="M10.5 29L4.49997 2C1.99996 3.5 0.499984 6.5 0.499995 15.5C0.500001 19.5 0 28.5 10.5 29Z" fill="#FECC2F"/>
<path d="M15.5 9.99995L23.5 1.49995C23 0.999899 31.5 1 30 17.9999L15.5 9.99995Z" fill="#35B74B"/>
<path d="M15 10.5L8.5 17.5L11 29C18 28.5 30 31.5 30 18.5L15 10.5Z" fill="#157FFB"/>
<path d="M8.5 16.5L23 1.00003C19 -0.499859 7.5 9.90629e-05 5 1.99999L8.5 16.5Z" fill="#FC3B36"/>
</svg>
